# xmcd
#
# Track frame offsets:
# 150
# 34199
# 63094
# 87740
# 115046
# 133548
# 152461
# 177935
# 211219
# 242552
# 273530
# 302264
#
# Disc length: 4379 seconds
#
# Revision: 0
# Processed by: cddbd v1.4PL0 Copyright (c) Steve Scherf et al.
# Submitted via: Audion 3.0.2 (http://www.panic.com/audion/)
#
DISCID=9711190c
DTITLE=James Patterson - 2nd Chance Disk 6
DYEAR=1900
DGENRE=
TTITLE0=Chapter 65
TTITLE1=Chapter 66
TTITLE2=Chapter 67
TTITLE3=Chapter 68
TTITLE4=Chapter 69
TTITLE5=Chapter 70
TTITLE6=Chapter 71
TTITLE7=Chapter 72
TTITLE8=Chapter 73
TTITLE9=Chapter 74
TTITLE10=Chapter 75
TTITLE11=Chapter 76
EXTD=
EXTT0=
EXTT1=
EXTT2=
EXTT3=
EXTT4=
EXTT5=
EXTT6=
EXTT7=
EXTT8=
EXTT9=
EXTT10=
EXTT11=
PLAYORDER=
